Coordinates
version=1
nRows=65
nColumns=12
inDegrees=yes

Units are S.I. units (second, meters, Newtons, ...)
Angles are in degrees

endheader
time	SC_y	SC_z	SC_x	AC_y	AC_z	AC_x	GH_y	GH_z	GH_yy	EL_x	PS_y
       0.0              -56.71          25.77          23.82          45.98          8.162         -5.167          148.9          10.91          -38.7          33.34          133.9
   0.01267              -56.71          25.77          23.82          45.98          8.158         -5.168          148.9          10.92          -38.7          33.33          133.9
   0.02535              -56.71          25.77          23.82          45.98          8.154         -5.168          148.9          10.93          -38.7          33.33          133.9
   0.03802              -56.71          25.77          23.82          45.98           8.15         -5.168          148.9          10.93          -38.7          33.33          133.9
   0.05069              -56.71          25.77          23.83          45.99          8.145         -5.169          148.9          10.94          -38.7          33.33          133.9
   0.06337              -56.71          25.77          23.83          45.99           8.14         -5.169          148.9          10.95          -38.7          33.33          133.9
   0.07604              -56.71          25.77          23.83          45.99          8.135          -5.17          148.8          10.96          -38.7          33.33          133.9
   0.08871              -56.71          25.77          23.84           46.0           8.13          -5.17          148.8          10.97          -38.7          33.33          133.9
    0.1014              -56.71          25.78          23.84           46.0          8.124         -5.171          148.8          10.98          -38.7          33.32          133.9
    0.1141              -56.71          25.78          23.85           46.0          8.117         -5.171          148.8          10.99          -38.7          33.32          133.9
    0.1267              -56.71          25.78          23.85          46.01          8.111         -5.172          148.8           11.0          -38.7          33.32          133.9
    0.1394              -56.71          25.78          23.85          46.01          8.103         -5.172          148.7          11.01          -38.7          33.32          133.9
    0.1521               -56.7          25.78          23.86          46.01          8.095         -5.173          148.7          11.02          -38.7          33.31          133.9
    0.1648               -56.7          25.78          23.86          46.02          8.087         -5.174          148.7          11.04          -38.7          33.31          133.9
    0.1774               -56.7          25.79          23.87          46.02          8.078         -5.175          148.7          11.05          -38.7          33.31          133.9
    0.1901               -56.7          25.79          23.88          46.03          8.068         -5.175          148.6          11.07          -38.7          33.31          133.9
    0.2028               -56.7          25.79          23.88          46.04          8.057         -5.176          148.6          11.09          -38.7           33.3          133.9
    0.2154               -56.7          25.79          23.89          46.04          8.045         -5.177          148.6          11.11         -38.69           33.3          133.9
    0.2281               -56.7          25.79           23.9          46.05          8.032         -5.178          148.5          11.13         -38.69          33.29          133.9
    0.2408               -56.7           25.8          23.91          46.06          8.018          -5.18          148.5          11.15         -38.69          33.29          133.9
    0.2535               -56.7           25.8          23.92          46.06          8.002         -5.181          148.4          11.18         -38.69          33.29          133.9
    0.2661               -56.7           25.8          23.93          46.07          7.985         -5.183          148.4          11.21         -38.69          33.28          133.9
    0.2788               -56.7          25.81          23.94          46.08          7.966         -5.184          148.3          11.24         -38.69          33.27          133.9
    0.2915               -56.7          25.81          23.95           46.1          7.945         -5.186          148.2          11.27         -38.69          33.27          133.9
    0.3042               -56.7          25.82          23.97          46.11          7.922         -5.188          148.2          11.31         -38.69          33.26          133.9
    0.3168               -56.7          25.82          23.99          46.12          7.896          -5.19          148.1          11.35         -38.69          33.25          133.9
    0.3295              -56.69          25.83           24.0          46.14          7.867         -5.193          148.0           11.4         -38.69          33.24          133.9
    0.3422              -56.69          25.83          24.02          46.16          7.834         -5.196          147.9          11.46         -38.69          33.23          133.9
    0.3549              -56.69          25.84          24.05          46.18          7.798         -5.199          147.8          11.52         -38.69          33.22          133.9
    0.3675              -56.69          25.85          24.07           46.2          7.756         -5.202          147.6          11.59         -38.69          33.21          133.9
    0.3802              -56.69          25.86           24.1          46.23          7.708         -5.207          147.5          11.67         -38.69          33.19          133.9
    0.3929              -56.68          25.87          24.14          46.26          7.653         -5.211          147.3          11.76         -38.69          33.18          133.9
    0.4056              -56.68          25.88          24.18          46.29          7.589         -5.217          147.1          11.86         -38.69          33.15          133.9
    0.4182              -56.68           25.9          24.23          46.33          7.516         -5.223          146.9          11.99         -38.69          33.13          133.9
    0.4309              -56.67          25.92          24.28          46.38          7.429         -5.231          146.6          12.13         -38.69           33.1          133.9
    0.4436              -56.67          25.94          24.34          46.43          7.328         -5.239          146.3           12.3         -38.68          33.07          133.9
    0.4562              -56.66          25.96          24.42           46.5          7.207          -5.25          145.9           12.5         -38.68          33.03          133.8
    0.4689              -56.66          25.99          24.51          46.58          7.062         -5.262          145.4          12.74         -38.68          32.99          133.8
    0.4816              -56.65          26.03          24.62          46.67          6.887         -5.278          144.8          13.03         -38.68          32.93          133.8
    0.4943              -56.64          26.07          24.76          46.79          6.673         -5.296          144.2          13.39         -38.68          32.87          133.8
    0.5069              -56.63          26.12          24.93          46.94          6.408         -5.319          143.3          13.82         -38.67          32.78          133.8
    0.5196              -56.61          26.19          25.13          47.12          6.079         -5.347          142.3          14.37         -38.67          32.68          133.7
    0.5323              -56.59          26.27           25.4          47.34          5.664         -5.383          140.9          15.06         -38.66          32.55          133.7
     0.545              -56.57          26.38          25.73          47.63          5.136         -5.429          139.2          15.93         -38.65          32.38          133.7
    0.5576              -56.54          26.52          26.16           48.0          4.461         -5.487          137.1          17.06         -38.64          32.17          133.6
    0.5703               -56.5          26.69          26.71          48.47          3.594         -5.562          134.3          18.49         -38.63          31.89          133.5
     0.583              -56.45          26.92          27.41          49.08          2.487         -5.658          130.8          20.33         -38.62          31.54          133.4
    0.5957              -56.39           27.2          28.29          49.84          1.095         -5.778          126.3          22.64          -38.6           31.1          133.3
    0.6083              -56.31          27.54          29.36          50.77        -0.6012         -5.925          120.9          25.45         -38.57          30.57          133.2
     0.621              -56.22          27.94           30.6          51.84         -2.567         -6.095          114.6          28.72         -38.54          29.95          133.0
    0.6337              -56.13          28.37          31.95          53.01         -4.696         -6.279          107.8          32.25         -38.51          29.27          132.8
    0.6463              -56.03           28.8           33.3          54.17         -6.825         -6.463          101.0          35.78         -38.48           28.6          132.6
     0.659              -55.94           29.2          34.54          55.25         -8.792         -6.633          94.71          39.05         -38.46          27.98          132.4
    0.6717              -55.86          29.54          35.62          56.17         -10.49          -6.78          89.28          41.86         -38.43          27.44          132.3
    0.6844               -55.8          29.82           36.5          56.93         -11.88         -6.901          84.83          44.17         -38.41           27.0          132.2
     0.697              -55.75          30.04           37.2          57.54         -12.99         -6.996          81.29          46.01          -38.4          26.65          132.1
    0.7097              -55.71          30.22          37.74          58.01         -13.85         -7.071          78.52          47.45         -38.39          26.38          132.0
    0.7224              -55.68          30.35          38.17          58.38         -14.53          -7.13          76.36          48.57         -38.38          26.17          131.9
    0.7351              -55.66          30.46          38.51          58.67         -15.06         -7.175          74.67          49.44         -38.37           26.0          131.9
    0.7477              -55.64          30.55          38.77           58.9         -15.47         -7.211          73.34          50.13         -38.36          25.87          131.9
    0.7604              -55.62          30.61          38.98          59.08          -15.8          -7.24          72.29          50.68         -38.36          25.77          131.8
    0.7731              -55.61          30.67          39.14          59.22         -16.07         -7.262          71.44          51.12         -38.35          25.68          131.8
    0.7858               -55.6          30.71          39.28          59.34         -16.28         -7.281          70.76          51.47         -38.35          25.61          131.8
    0.7984              -55.59          30.74          39.39          59.43         -16.45         -7.296           70.2          51.76         -38.35          25.56          131.8
    0.8111              -55.59          30.77          39.48          59.51          -16.6         -7.309          69.73           52.0         -38.35          25.51          131.8
